<svg xmlns="http://www.w3.org/2000/svg" width="87.386" height="55.066" viewBox="0 0 87.386 55.066">
  <g id="Group_12404" data-name="Group 12404" transform="translate(-841.745 -1155.718)">
    <path id="Path_13130" data-name="Path 13130" d="M41.126,20.565A20.563,20.563,0,1,0,0,20.565c0,.23.01.457.018.685l-.018,0v19.88H21.239l0-.018A20.559,20.559,0,0,0,41.126,20.565Z" transform="translate(887.503 1197.344) rotate(-90)" fill="none" stroke="#1e2324" stroke-width="1" opacity="0.701"/>
    <path id="Path_13131" data-name="Path 13131" d="M41.126,20.565A20.563,20.563,0,1,0,0,20.565c0,.23.01.457.018.685l-.018,0v19.88H21.239l0-.018A20.559,20.559,0,0,0,41.126,20.565Z" transform="translate(842.245 1169.157)" fill="none" stroke="#1e2324" stroke-width="1" opacity="0.701"/>
  </g>
</svg>
