<svg xmlns="http://www.w3.org/2000/svg" width="53" height="33.545" viewBox="0 0 53 33.545">
  <g id="Group_12393" data-name="Group 12393" transform="translate(-841.745 -1155.718)">
    <path id="Path_13130" data-name="Path 13130" d="M24.755,12.379A12.378,12.378,0,1,0,0,12.379c0,.138.006.275.011.413H0V24.757H12.784v-.011A12.376,12.376,0,0,0,24.755,12.379Z" transform="translate(869.488 1180.974) rotate(-90)" fill="none" stroke="#fff" stroke-width="1" opacity="0.701"/>
    <path id="Path_13131" data-name="Path 13131" d="M24.756,12.379A12.378,12.378,0,1,0,0,12.379c0,.138.006.275.011.413H0V24.757H12.784v-.011A12.376,12.376,0,0,0,24.756,12.379Z" transform="translate(842.245 1164.007)" fill="none" stroke="#fff" stroke-width="1" opacity="0.701"/>
  </g>
</svg>
